<?xml version="1.0" encoding="UTF-8"?>
<svg version="1.1" xmlns="http://www.w3.org/2000/svg" width="344" height="152">
<path d="M0 0 C0.94456401 -0.00445784 1.88912802 -0.00891569 2.86231518 -0.01350862 C3.89692536 -0.01332426 4.93153555 -0.01313989 5.99749756 -0.01294994 C7.64988796 -0.01846498 7.64988796 -0.01846498 9.33565998 -0.02409142 C13.04032666 -0.03513627 16.7449653 -0.0389735 20.449646 -0.04278088 C23.10068428 -0.04904499 25.75171956 -0.05567899 28.40275574 -0.0626936 C36.36858334 -0.08244573 44.33441219 -0.0925235 52.30025816 -0.10142139 C56.05437013 -0.10580711 59.80848069 -0.11117325 63.56259155 -0.11641026 C76.04767056 -0.13342273 88.5327487 -0.14791531 101.01783752 -0.155159 C104.25698854 -0.1570688 107.49613954 -0.15898915 110.73529053 -0.16094494 C111.5403374 -0.16142868 112.34538427 -0.16191242 113.1748265 -0.16241082 C126.20626005 -0.17070514 139.23760163 -0.19603184 152.26899505 -0.22852562 C165.65756839 -0.26163689 179.04609506 -0.27961151 192.43470955 -0.28280324 C199.94800647 -0.28496478 207.46116934 -0.29366091 214.97442627 -0.31926441 C221.37535234 -0.34102725 227.77611181 -0.3489946 234.17707068 -0.33929763 C237.43941303 -0.33476869 240.70134215 -0.33876179 243.96365166 -0.35605907 C247.51094615 -0.3738101 251.05737934 -0.36665491 254.60467529 -0.35352612 C255.6214397 -0.36449536 256.63820412 -0.37546461 257.68577957 -0.38676625 C271.00136758 -0.26841474 281.65287184 4.86491493 291.434021 13.63422108 C299.29141312 21.7592999 303.44347353 32.48636152 303.48602295 43.64984608 C303.49259415 44.40168674 303.49916534 45.15352741 303.50593567 45.92815113 C303.52562343 48.41350893 303.53732509 50.89880622 303.54730225 53.38422108 C303.55137777 54.23714741 303.5554533 55.09007374 303.55965233 55.96884632 C303.58050017 60.48897526 303.59480387 65.00907402 303.60418701 69.52924061 C303.61521053 74.17135557 303.64956677 78.81298579 303.68935871 83.45493031 C303.71566288 87.0463184 303.72389131 90.63759379 303.72746849 94.22906971 C303.73230389 95.93849405 303.7438296 97.6479144 303.76250648 99.35724354 C303.92884524 115.59849374 300.90663275 127.88111566 289.809021 140.25922108 C282.78615698 147.05071167 272.44961577 152.24687168 262.61804199 152.26844215 C261.20119598 152.27512892 261.20119598 152.27512892 259.75572681 152.28195077 C258.72111663 152.28176641 257.68650644 152.28158205 256.62054443 152.2813921 C255.51895083 152.28506879 254.41735723 152.28874547 253.28238201 152.29253358 C249.57771533 152.30357842 245.87307669 152.30741565 242.168396 152.31122303 C239.51735772 152.31748714 236.86632244 152.32412114 234.21528625 152.33113575 C226.24945865 152.35088789 218.2836298 152.36096565 210.31778383 152.36986354 C206.56367186 152.37424926 202.8095613 152.37961541 199.05545044 152.38485241 C186.57037143 152.40186489 174.08529329 152.41635746 161.60020447 152.42360115 C158.36105346 152.42551096 155.12190245 152.4274313 151.88275146 152.42938709 C151.07770459 152.42987083 150.27265772 152.43035457 149.44321549 152.43085297 C136.41178194 152.4391473 123.38044036 152.464474 110.34904695 152.49696777 C96.96047361 152.53007905 83.57194693 152.54805366 70.18333244 152.55124539 C62.67003552 152.55340693 55.15687265 152.56210306 47.64361572 152.58770657 C41.24268965 152.60946941 34.84193019 152.61743675 28.44097131 152.60773978 C25.17862896 152.60321084 21.91669984 152.60720395 18.65439034 152.62450123 C15.10709585 152.64225225 11.56066266 152.63509706 8.0133667 152.62196827 C6.48822008 152.63842214 6.48822008 152.63842214 4.93226242 152.65520841 C-8.38332559 152.53685689 -19.03482984 147.40352722 -28.815979 138.63422108 C-36.67337112 130.50914225 -40.82543154 119.78208063 -40.86798096 108.61859608 C-40.87455215 107.86675541 -40.88112335 107.11491474 -40.88789368 106.34029102 C-40.90758143 103.85493323 -40.9192831 101.36963593 -40.92926025 98.88422108 C-40.93333578 98.03129475 -40.93741131 97.17836842 -40.94161034 96.29959583 C-40.96245817 91.77946689 -40.97676188 87.25936813 -40.98614502 82.73920155 C-40.99716854 78.09708658 -41.03152478 73.45545636 -41.07131672 68.81351185 C-41.09762089 65.22212375 -41.10584932 61.63084837 -41.1094265 58.03937244 C-41.1142619 56.32994811 -41.12578761 54.62052776 -41.14446449 52.91119862 C-41.31080325 36.66994842 -38.28859076 24.38732649 -27.190979 12.00922108 C-20.16811498 5.21773048 -9.83157378 0.02157047 0 0 Z " fill="#FDFDFD" transform="translate(40.69097900390625,-0.13422107696533203)"/>
<path d="M0 0 C0.98355469 0.00515625 1.96710938 0.0103125 2.98046875 0.015625 C10.15750972 0.09416991 10.15750972 0.09416991 13.625 1.25 C13.625 1.91 13.625 2.57 13.625 3.25 C14.285 3.25 14.945 3.25 15.625 3.25 C15.625 3.91 15.625 4.57 15.625 5.25 C16.615 5.25 17.605 5.25 18.625 5.25 C19.12 8.715 19.12 8.715 19.625 12.25 C20.285 12.25 20.945 12.25 21.625 12.25 C26.21725513 24.73519362 26.21725513 24.73519362 25.625 31.25 C26.285 31.25 26.945 31.25 27.625 31.25 C28.133783 32.80966218 28.63163469 34.37289241 29.125 35.9375 C29.4034375 36.80761719 29.681875 37.67773438 29.96875 38.57421875 C30.62350805 41.24391677 30.74331495 43.51396684 30.625 46.25 C31.285 46.25 31.945 46.25 32.625 46.25 C32.625 46.91 32.625 47.57 32.625 48.25 C39.555 48.25 46.485 48.25 53.625 48.25 C53.955 44.29 54.285 40.33 54.625 36.25 C57.595 36.25 60.565 36.25 63.625 36.25 C63.625 40.21 63.625 44.17 63.625 48.25 C62.965 48.25 62.305 48.25 61.625 48.25 C61.295 49.24 60.965 50.23 60.625 51.25 C59.965 51.25 59.305 51.25 58.625 51.25 C58.625 51.91 58.625 52.57 58.625 53.25 C57.965 53.25 57.305 53.25 56.625 53.25 C56.625 53.91 56.625 54.57 56.625 55.25 C52.21009147 57.44872915 48.0811514 57.55067641 43.25 57.5 C42.15558594 57.51160156 42.15558594 57.51160156 41.0390625 57.5234375 C36.20778501 57.50618294 32.21018234 56.77436141 27.625 55.25 C27.625 54.59 27.625 53.93 27.625 53.25 C26.965 53.25 26.305 53.25 25.625 53.25 C25.625 52.26 25.625 51.27 25.625 50.25 C24.965 50.25 24.305 50.25 23.625 50.25 C22.1466774 47.29335481 22.56467217 44.50770263 22.625 41.25 C21.965 41.25 21.305 41.25 20.625 41.25 C20.625 39.6 20.625 37.95 20.625 36.25 C19.965 36.25 19.305 36.25 18.625 36.25 C18.625 33.94 18.625 31.63 18.625 29.25 C17.965 29.25 17.305 29.25 16.625 29.25 C14.65681664 23.42745757 13.22285771 18.41618181 13.625 12.25 C12.965 12.25 12.305 12.25 11.625 12.25 C11.625 11.59 11.625 10.93 11.625 10.25 C10.635 10.25 9.645 10.25 8.625 10.25 C8.625 9.59 8.625 8.93 8.625 8.25 C4.99907004 8.33060591 1.37485598 8.44346817 -2.25 8.5625 C-3.28253906 8.58505859 -4.31507812 8.60761719 -5.37890625 8.63085938 C-6.36503906 8.66630859 -7.35117188 8.70175781 -8.3671875 8.73828125 C-9.27839355 8.76446533 -10.18959961 8.79064941 -11.12841797 8.81762695 C-11.86979004 8.96031006 -12.61116211 9.10299316 -13.375 9.25 C-14.035 10.24 -14.695 11.23 -15.375 12.25 C-16.035 12.25 -16.695 12.25 -17.375 12.25 C-17.375 14.56 -17.375 16.87 -17.375 19.25 C-16.59125 19.559375 -15.8075 19.86875 -15 20.1875 C-12.375 21.25 -12.375 21.25 -10.375 22.25 C-10.375 22.91 -10.375 23.57 -10.375 24.25 C-9.323125 24.188125 -8.27125 24.12625 -7.1875 24.0625 C-3.21391936 24.257922 -1.46255437 24.8173814 1.625 27.25 C1.625 27.91 1.625 28.57 1.625 29.25 C3.275 29.25 4.925 29.25 6.625 29.25 C6.625 29.91 6.625 30.57 6.625 31.25 C7.285 31.25 7.945 31.25 8.625 31.25 C10.24543498 37.32663119 10.38570375 44.19932758 8.625 50.25 C6.645 50.745 6.645 50.745 4.625 51.25 C4.295 52.57 3.965 53.89 3.625 55.25 C2.965 55.25 2.305 55.25 1.625 55.25 C1.625 55.91 1.625 56.57 1.625 57.25 C-3.14513394 58.47304898 -7.80359525 58.39433772 -12.69140625 58.3828125 C-14.03162086 58.38424759 -14.03162086 58.38424759 -15.39891052 58.38571167 C-17.28246125 58.38639048 -19.16601435 58.38455711 -21.04956055 58.38037109 C-23.93088023 58.37501231 -26.81204448 58.38032948 -29.69335938 58.38671875 C-31.52604201 58.38605804 -33.35872455 58.38477702 -35.19140625 58.3828125 C-36.05190079 58.38483673 -36.91239532 58.38686096 -37.79896545 58.38894653 C-38.6033757 58.38579437 -39.40778595 58.38264221 -40.23657227 58.37939453 C-40.94096939 58.37859894 -41.64536652 58.37780334 -42.37110901 58.37698364 C-44.47588083 58.24360733 -46.349041 57.82231243 -48.375 57.25 C-48.375 56.59 -48.375 55.93 -48.375 55.25 C-49.035 55.25 -49.695 55.25 -50.375 55.25 C-50.705 53.93 -51.035 52.61 -51.375 51.25 C-52.035 51.25 -52.695 51.25 -53.375 51.25 C-53.375 50.26 -53.375 49.27 -53.375 48.25 C-54.035 48.25 -54.695 48.25 -55.375 48.25 C-55.375 36.37 -55.375 24.49 -55.375 12.25 C-53.065 12.25 -50.755 12.25 -48.375 12.25 C-48.34994385 13.23919434 -48.3248877 14.22838867 -48.29907227 15.24755859 C-48.20502213 18.91159404 -48.10479571 22.57543885 -48.00268555 26.23925781 C-47.95932759 27.82612657 -47.91765313 29.41304224 -47.87768555 31 C-47.82000368 33.27878979 -47.75630362 35.55734322 -47.69140625 37.8359375 C-47.67469376 38.54744965 -47.65798126 39.25896179 -47.64076233 39.99203491 C-47.57778063 43.74660817 -47.57778063 43.74660817 -46.375 47.25 C-31.195 47.58 -16.015 47.91 -0.375 48.25 C-0.375 47.59 -0.375 46.93 -0.375 46.25 C0.285 46.25 0.945 46.25 1.625 46.25 C1.625 42.95 1.625 39.65 1.625 36.25 C0.965 36.25 0.305 36.25 -0.375 36.25 C-0.375 35.59 -0.375 34.93 -0.375 34.25 C-2.025 34.25 -3.675 34.25 -5.375 34.25 C-5.375 33.59 -5.375 32.93 -5.375 32.25 C-6.014375 32.146875 -6.65375 32.04375 -7.3125 31.9375 C-12.67121337 30.73452353 -17.7864565 29.309029 -22.375 26.25 C-22.375 25.59 -22.375 24.93 -22.375 24.25 C-23.035 24.25 -23.695 24.25 -24.375 24.25 C-26.1948497 18.79045091 -25.75245568 12.75982274 -24.375 7.25 C-23.715 7.25 -23.055 7.25 -22.375 7.25 C-22.375 6.59 -22.375 5.93 -22.375 5.25 C-21.715 5.25 -21.055 5.25 -20.375 5.25 C-20.375 4.59 -20.375 3.93 -20.375 3.25 C-13.47907933 0.40406449 -7.41195528 -0.15918293 0 0 Z " fill="#1A6788" transform="translate(72.375,58.75)"/>
<path d="M0 0 C0.95003906 -0.00386719 1.90007812 -0.00773437 2.87890625 -0.01171875 C7.98617638 -0.00463516 12.8422401 0.24670672 17.875 1.125 C17.875 1.785 17.875 2.445 17.875 3.125 C19.525 3.125 21.175 3.125 22.875 3.125 C22.875 3.785 22.875 4.445 22.875 5.125 C23.926875 5.24875 24.97875 5.3725 26.0625 5.5 C29.33458771 6.03640782 31.88036076 6.76380035 34.875 8.125 C34.875 8.785 34.875 9.445 34.875 10.125 C35.535 10.125 36.195 10.125 36.875 10.125 C36.875 10.785 36.875 11.445 36.875 12.125 C38.525 12.455 40.175 12.785 41.875 13.125 C41.875 13.785 41.875 14.445 41.875 15.125 C42.535 15.125 43.195 15.125 43.875 15.125 C43.875 15.785 43.875 16.445 43.875 17.125 C44.865 17.125 45.855 17.125 46.875 17.125 C46.875 17.785 46.875 18.445 46.875 19.125 C48.855 19.62 48.855 19.62 50.875 20.125 C51.37 22.105 51.37 22.105 51.875 24.125 C52.535 24.125 53.195 24.125 53.875 24.125 C53.875 25.115 53.875 26.105 53.875 27.125 C54.535 27.125 55.195 27.125 55.875 27.125 C55.875 27.785 55.875 28.445 55.875 29.125 C56.535 29.125 57.195 29.125 57.875 29.125 C58.205 30.775 58.535 32.425 58.875 34.125 C59.535 34.125 60.195 34.125 60.875 34.125 C60.875 34.785 60.875 35.445 60.875 36.125 C61.535 36.125 62.195 36.125 62.875 36.125 C62.875 37.115 62.875 38.105 62.875 39.125 C63.535 39.125 64.195 39.125 64.875 39.125 C65.205 42.095 65.535 45.065 65.875 48.125 C66.535 48.125 67.195 48.125 67.875 48.125 C67.875 49.775 67.875 51.425 67.875 53.125 C68.865 53.125 69.855 53.125 70.875 53.125 C70.875 54.775 70.875 56.425 70.875 58.125 C68.565 58.125 66.255 58.125 63.875 58.125 C63.875 54.825 63.875 51.525 63.875 48.125 C63.215 48.125 62.555 48.125 61.875 48.125 C61.545 45.155 61.215 42.185 60.875 39.125 C60.215 39.125 59.555 39.125 58.875 39.125 C58.875 38.135 58.875 37.145 58.875 36.125 C58.215 36.125 57.555 36.125 56.875 36.125 C56.545 34.475 56.215 32.825 55.875 31.125 C55.215 31.125 54.555 31.125 53.875 31.125 C53.875 30.465 53.875 29.805 53.875 29.125 C53.215 29.125 52.555 29.125 51.875 29.125 C51.606875 28.485625 51.33875 27.84625 51.0625 27.1875 C49.98832248 24.79368314 49.98832248 24.79368314 46.875 24.125 C46.20833333 22.79166667 45.54166667 21.45833333 44.875 20.125 C43.39 19.63 43.39 19.63 41.875 19.125 C41.875 18.465 41.875 17.805 41.875 17.125 C41.215 17.125 40.555 17.125 39.875 17.125 C39.875 16.465 39.875 15.805 39.875 15.125 C38.699375 14.6609375 38.699375 14.6609375 37.5 14.1875 C34.875 13.125 34.875 13.125 32.875 12.125 C32.875 11.465 32.875 10.805 32.875 10.125 C32.194375 10.2075 31.51375 10.29 30.8125 10.375 C27.55740696 10.0979708 25.69179613 9.01803515 23.01171875 7.1953125 C15.26692116 3.31583436 6.89023268 3.79114393 -1.5625 3.8125 C-2.83416016 3.79638672 -4.10582031 3.78027344 -5.41601562 3.76367188 C-12.55478449 3.75997111 -18.56501208 4.22942465 -25.125 7.125 C-25.77895752 7.40907715 -26.43291504 7.6931543 -27.10668945 7.98583984 C-27.73148193 8.2586377 -28.35627441 8.53143555 -29 8.8125 C-32.125 10.125 -32.125 10.125 -35.125 10.125 C-35.125 10.785 -35.125 11.445 -35.125 12.125 C-39.50961538 15.125 -39.50961538 15.125 -42.125 15.125 C-42.125 15.785 -42.125 16.445 -42.125 17.125 C-42.785 17.125 -43.445 17.125 -44.125 17.125 C-44.125 17.785 -44.125 18.445 -44.125 19.125 C-45.775 19.455 -47.425 19.785 -49.125 20.125 C-49.125 20.785 -49.125 21.445 -49.125 22.125 C-49.785 22.125 -50.445 22.125 -51.125 22.125 C-51.125 22.785 -51.125 23.445 -51.125 24.125 C-51.785 24.125 -52.445 24.125 -53.125 24.125 C-53.455 25.775 -53.785 27.425 -54.125 29.125 C-54.785 29.125 -55.445 29.125 -56.125 29.125 C-56.125 29.785 -56.125 30.445 -56.125 31.125 C-56.785 31.125 -57.445 31.125 -58.125 31.125 C-58.393125 31.805625 -58.66125 32.48625 -58.9375 33.1875 C-60.28553306 36.52210809 -61.70036298 39.82243237 -63.125 43.125 C-63.785 43.125 -64.445 43.125 -65.125 43.125 C-65.455 45.435 -65.785 47.745 -66.125 50.125 C-66.785 50.125 -67.445 50.125 -68.125 50.125 C-68.125 52.765 -68.125 55.405 -68.125 58.125 C-69.775 57.795 -71.425 57.465 -73.125 57.125 C-73.125 55.805 -73.125 54.485 -73.125 53.125 C-72.135 53.125 -71.145 53.125 -70.125 53.125 C-70.125 50.815 -70.125 48.505 -70.125 46.125 C-69.465 46.125 -68.805 46.125 -68.125 46.125 C-68.00125 45.403125 -67.8775 44.68125 -67.75 43.9375 C-67.1345069 41.16778106 -66.24055626 38.7279646 -65.125 36.125 C-64.465 36.125 -63.805 36.125 -63.125 36.125 C-63.125 35.465 -63.125 34.805 -63.125 34.125 C-62.465 34.125 -61.805 34.125 -61.125 34.125 C-60.795 32.475 -60.465 30.825 -60.125 29.125 C-59.465 29.125 -58.805 29.125 -58.125 29.125 C-58.125 28.465 -58.125 27.805 -58.125 27.125 C-57.465 27.125 -56.805 27.125 -56.125 27.125 C-56.125 26.135 -56.125 25.145 -56.125 24.125 C-55.465 24.125 -54.805 24.125 -54.125 24.125 C-54.125 23.465 -54.125 22.805 -54.125 22.125 C-52.75 20.5 -52.75 20.5 -51.125 19.125 C-50.465 19.125 -49.805 19.125 -49.125 19.125 C-49.125 18.465 -49.125 17.805 -49.125 17.125 C-47.475 16.465 -45.825 15.805 -44.125 15.125 C-44.125 14.465 -44.125 13.805 -44.125 13.125 C-42.875 11.5 -42.875 11.5 -41.125 10.125 C-39.805 10.125 -38.485 10.125 -37.125 10.125 C-37.125 9.465 -37.125 8.805 -37.125 8.125 C-29.83928571 4.69642857 -29.83928571 4.69642857 -25.125 5.125 C-25.125 4.465 -25.125 3.805 -25.125 3.125 C-23.475 3.125 -21.825 3.125 -20.125 3.125 C-20.125 2.465 -20.125 1.805 -20.125 1.125 C-13.37931311 0.25235467 -6.79820138 -0.0278996 0 0 Z " fill="#F4BD83" transform="translate(216.125,34.875)"/>
<path d="M0 0 C0.33 0.99 0.66 1.98 1 3 C1.66 3 2.32 3 3 3 C3 3.66 3 4.32 3 5 C3.66 5 4.32 5 5 5 C5 8.96 5 12.92 5 17 C5.66 17 6.32 17 7 17 C7 17.66 7 18.32 7 19 C7.99 19 8.98 19 10 19 C10.33 14.38 10.66 9.76 11 5 C10.34 5 9.68 5 9 5 C8.67 3.35 8.34 1.7 8 0 C10.93847653 -0.107834 13.87301151 -0.18721916 16.8125 -0.25 C17.64587891 -0.28351563 18.47925781 -0.31703125 19.33789062 -0.3515625 C25.41862416 -0.44924497 25.41862416 -0.44924497 28.0625 1.59375 C29.29987257 4.76967292 29.28950597 7.34980097 29.1875 10.75 C29.14689453 12.50570312 29.14689453 12.50570312 29.10546875 14.296875 C29.07066406 15.18890625 29.03585938 16.0809375 29 17 C29.66 17 30.32 17 31 17 C31.495 18.98 31.495 18.98 32 21 C29.03 21 26.06 21 23 21 C23 20.34 23 19.68 23 19 C23.66 19 24.32 19 25 19 C25 14.38 25 9.76 25 5 C21.7 5 18.4 5 15 5 C15 9.62 15 14.24 15 19 C15.99 19 16.98 19 18 19 C18 19.66 18 20.32 18 21 C17.21753906 20.98839844 16.43507812 20.97679688 15.62890625 20.96484375 C14.61699219 20.95582031 13.60507813 20.94679688 12.5625 20.9375 C11.55316406 20.92589844 10.54382813 20.91429688 9.50390625 20.90234375 C7.05978933 20.71387324 7.05978933 20.71387324 6 22 C3.32941149 22.14115161 0.67567762 22.04247107 -2 22 C-2 21.01 -2 20.02 -2 19 C-1.01 19 -0.02 19 1 19 C1 14.38 1 9.76 1 5 C-1.64 4.34 -4.28 3.68 -7 3 C-7 3.66 -7 4.32 -7 5 C-7.66 5 -8.32 5 -9 5 C-9 8.96 -9 12.92 -9 17 C-8.34 17 -7.68 17 -7 17 C-7 18.32 -7 19.64 -7 21 C-9.97 21 -12.94 21 -16 21 C-16 19.68 -16 18.36 -16 17 C-15.01 17 -14.02 17 -13 17 C-13 13.04 -13 9.08 -13 5 C-13.99 5 -14.98 5 -16 5 C-15.67 3.68 -15.34 2.36 -15 1 C-9.92928099 0.28832014 -5.11791642 -0.10662326 0 0 Z " fill="#F5C088" transform="translate(169,95)"/>
<path d="M0 0 C0.92425781 0.00193359 1.84851563 0.00386719 2.80078125 0.00585938 C4.24517578 0.02422852 4.24517578 0.02422852 5.71875 0.04296875 C7.16314453 0.04393555 7.16314453 0.04393555 8.63671875 0.04492188 C15.79692497 0.08986041 15.79692497 0.08986041 19.21875 1.23046875 C19.21875 1.89046875 19.21875 2.55046875 19.21875 3.23046875 C19.87875 3.23046875 20.53875 3.23046875 21.21875 3.23046875 C21.21875 3.89046875 21.21875 4.55046875 21.21875 5.23046875 C23.69375 5.72546875 23.69375 5.72546875 26.21875 6.23046875 C26.21875 7.55046875 26.21875 8.87046875 26.21875 10.23046875 C26.87875 10.23046875 27.53875 10.23046875 28.21875 10.23046875 C28.21875 13.53046875 28.21875 16.83046875 28.21875 20.23046875 C25.24875 20.23046875 22.27875 20.23046875 19.21875 20.23046875 C19.21875 17.59046875 19.21875 14.95046875 19.21875 12.23046875 C18.55875 12.23046875 17.89875 12.23046875 17.21875 12.23046875 C16.88875 10.91046875 16.55875 9.59046875 16.21875 8.23046875 C9.28875 8.23046875 2.35875 8.23046875 -4.78125 8.23046875 C-5.11125 9.55046875 -5.44125 10.87046875 -5.78125 12.23046875 C-7.10125 12.23046875 -8.42125 12.23046875 -9.78125 12.23046875 C-10.46875 8.91796875 -10.46875 8.91796875 -10.78125 5.23046875 C-8.08626568 1.32274148 -4.61865525 -0.02245914 0 0 Z " fill="#1C6889" transform="translate(107.78125,58.76953125)"/>
<path d="M0 0 C0.66 0 1.32 0 2 0 C2 0.99 2 1.98 2 3 C3.65 3.33 5.3 3.66 7 4 C7 4.99 7 5.98 7 7 C7.66 7 8.32 7 9 7 C9 5.68 9 4.36 9 3 C11.31 3.33 13.62 3.66 16 4 C16 9.28 16 14.56 16 20 C16.99 20 17.98 20 19 20 C19 21.32 19 22.64 19 24 C16.03609162 25.48195419 13.27556022 25.05746597 10 25 C9.01 25 8.02 25 7 25 C4.66435067 24.68330179 2.3306218 24.35179197 0 24 C-0.19533059 20.9378174 -0.38153284 17.87553679 -0.5625 14.8125 C-0.61857422 13.94818359 -0.67464844 13.08386719 -0.73242188 12.19335938 C-0.9761489 7.95250921 -1.15770796 4.14202181 0 0 Z " fill="#FCF1E6" transform="translate(270,92)"/>
<path d="M0 0 C1.4370809 -0.05422947 2.87475462 -0.09289723 4.3125 -0.125 C5.11300781 -0.14820312 5.91351563 -0.17140625 6.73828125 -0.1953125 C9 0 9 0 12 2 C12.1875 4.625 12.1875 4.625 12 7 C12.66 7 13.32 7 14 7 C14 10.3 14 13.6 14 17 C13.34 17 12.68 17 12 17 C12 17.66 12 18.32 12 19 C11.34 19 10.68 19 10 19 C10 19.66 10 20.32 10 21 C2.78777589 22.34465195 2.78777589 22.34465195 -1 20.6875 C-1.66 20.130625 -2.32 19.57375 -3 19 C-3 18.34 -3 17.68 -3 17 C-3.66 17 -4.32 17 -5 17 C-5 13.04 -5 9.08 -5 5 C-4.34 5 -3.68 5 -3 5 C-2.67 4.01 -2.34 3.02 -2 2 C-1.34 2 -0.68 2 0 2 C0 1.34 0 0.68 0 0 Z " fill="#F3B26D" transform="translate(208,95)"/>
<path d="M0 0 C2.97 0 5.94 0 9 0 C9.33 0.99 9.66 1.98 10 3 C10.66 3 11.32 3 12 3 C13.66769477 8.00308432 13.66769477 13.99691568 12 19 C11.34 19 10.68 19 10 19 C9.67 19.99 9.34 20.98 9 22 C7.54176788 22.0270043 6.08339325 22.04639787 4.625 22.0625 C3.81289063 22.07410156 3.00078125 22.08570312 2.1640625 22.09765625 C0 22 0 22 -2 21 C-2 20.34 -2 19.68 -2 19 C-2.66 19 -3.32 19 -4 19 C-5.29188056 13.67099269 -5.69057861 8.28305817 -4 3 C-2.68 2.67 -1.36 2.34 0 2 C0 1.34 0 0.68 0 0 Z " fill="#F3B06B" transform="translate(296,95)"/>
<path d="M0 0 C13.2 0 26.4 0 40 0 C40 2.31 40 4.62 40 7 C26.8 7 13.6 7 0 7 C0 4.69 0 2.38 0 0 Z " fill="#146385" transform="translate(0,59)"/>
<path d="M0 0 C1.21816406 0.03480469 1.21816406 0.03480469 2.4609375 0.0703125 C3.68683594 0.09738281 3.68683594 0.09738281 4.9375 0.125 C5.87722656 0.15980469 5.87722656 0.15980469 6.8359375 0.1953125 C6.8359375 0.8553125 6.8359375 1.5153125 6.8359375 2.1953125 C8.1559375 2.5253125 9.4759375 2.8553125 10.8359375 3.1953125 C11.3309375 11.1153125 11.3309375 11.1153125 11.8359375 19.1953125 C12.4959375 19.1953125 13.1559375 19.1953125 13.8359375 19.1953125 C13.8359375 19.8553125 13.8359375 20.5153125 13.8359375 21.1953125 C11.37796897 21.38967741 8.91984456 21.5760867 6.4609375 21.7578125 C5.76226562 21.81388672 5.06359375 21.86996094 4.34375 21.92773438 C-0.9375 22.30859375 -0.9375 22.30859375 -3.1640625 21.1953125 C-3.1640625 20.5353125 -3.1640625 19.8753125 -3.1640625 19.1953125 C-3.8240625 19.1953125 -4.4840625 19.1953125 -5.1640625 19.1953125 C-5.1640625 16.2253125 -5.1640625 13.2553125 -5.1640625 10.1953125 C-1.1113109 9.21282726 2.67455487 9.11371676 6.8359375 9.1953125 C6.8359375 7.8753125 6.8359375 6.5553125 6.8359375 5.1953125 C2.67455487 5.11371676 -1.1113109 5.21282726 -5.1640625 6.1953125 C-4.4726412 2.73820598 -3.94163347 0.35574309 0 0 Z " fill="#F5BE85" transform="translate(251.1640625,94.8046875)"/>
<path d="M0 0 C0.33 0.99 0.66 1.98 1 3 C1.66 3 2.32 3 3 3 C3 8.28 3 13.56 3 19 C3.66 19.33 4.32 19.66 5 20 C2.69 20 0.38 20 -2 20 C-1.34 19.67 -0.68 19.34 0 19 C0 14.38 0 9.76 0 5 C-2.97 5 -5.94 5 -9 5 C-9 9.62 -9 14.24 -9 19 C-8.34 19 -7.68 19 -7 19 C-7 19.66 -7 20.32 -7 21 C-9.97 21 -12.94 21 -16 21 C-16 20.34 -16 19.68 -16 19 C-15.34 19 -14.68 19 -14 19 C-14 14.05 -14 9.1 -14 4 C-14.66 4 -15.32 4 -16 4 C-16 3.01 -16 2.02 -16 1 C-10.62915894 0.31798844 -5.41499441 -0.11521265 0 0 Z " fill="#F3B575" transform="translate(329,95)"/>
<path d="M0 0 C0.33 0.99 0.66 1.98 1 3 C1.66 3 2.32 3 3 3 C3 8.28 3 13.56 3 19 C2.67 19 2.34 19 2 19 C1.67 14.38 1.34 9.76 1 5 C-1.64 4.34 -4.28 3.68 -7 3 C-7 3.66 -7 4.32 -7 5 C-7.66 5 -8.32 5 -9 5 C-9 8.96 -9 12.92 -9 17 C-8.34 17 -7.68 17 -7 17 C-7 18.32 -7 19.64 -7 21 C-9.97 21 -12.94 21 -16 21 C-16 19.68 -16 18.36 -16 17 C-15.01 17 -14.02 17 -13 17 C-13 13.04 -13 9.08 -13 5 C-13.99 5 -14.98 5 -16 5 C-15.67 3.68 -15.34 2.36 -15 1 C-9.92928099 0.28832014 -5.11791642 -0.10662326 0 0 Z " fill="#EF9A41" transform="translate(169,95)"/>
<path d="M0 0 C0.66 0 1.32 0 2 0 C2.33 1.32 2.66 2.64 3 4 C3.66 4 4.32 4 5 4 C5 4.99 5 5.98 5 7 C5.66 7 6.32 7 7 7 C7 7.66 7 8.32 7 9 C7.66 9 8.32 9 9 9 C9.33 10.65 9.66 12.3 10 14 C10.66 14 11.32 14 12 14 C12 14.66 12 15.32 12 16 C12.66 16 13.32 16 14 16 C14 16.99 14 17.98 14 19 C14.66 19 15.32 19 16 19 C16.33 21.97 16.66 24.94 17 28 C17.66 28 18.32 28 19 28 C19 29.65 19 31.3 19 33 C19.99 33 20.98 33 22 33 C22 34.65 22 36.3 22 38 C19.69 38 17.38 38 15 38 C15 34.7 15 31.4 15 28 C14.34 28 13.68 28 13 28 C12.67 25.03 12.34 22.06 12 19 C11.34 19 10.68 19 10 19 C10 18.01 10 17.02 10 16 C9.34 16 8.68 16 8 16 C7.67 14.35 7.34 12.7 7 11 C6.34 11 5.68 11 5 11 C5 10.34 5 9.68 5 9 C4.34 9 3.68 9 3 9 C2.731875 8.360625 2.46375 7.72125 2.1875 7.0625 C1.11332248 4.66868314 1.11332248 4.66868314 -2 4 C-2 3.34 -2 2.68 -2 2 C-1.34 2 -0.68 2 0 2 C0 1.34 0 0.68 0 0 Z " fill="#F6C693" transform="translate(265,55)"/>
<path d="M0 0 C0 4.62 0 9.24 0 14 C-0.66 14 -1.32 14 -2 14 C-2.33 14.66 -2.66 15.32 -3 16 C-3.66 16 -4.32 16 -5 16 C-5.33 16.33 -5.66 16.66 -6 17 C-7.51928038 17.07179964 -9.04167482 17.08392007 -10.5625 17.0625 C-11.38878906 17.05347656 -12.21507812 17.04445313 -13.06640625 17.03515625 C-14.02353516 17.01775391 -14.02353516 17.01775391 -15 17 C-15 16.67 -15 16.34 -15 16 C-12.36 16 -9.72 16 -7 16 C-7 15.34 -7 14.68 -7 14 C-7.99 14 -8.98 14 -10 14 C-10 9.38 -10 4.76 -10 0 C-6.30581799 -1.231394 -3.7943739 -0.64432764 0 0 Z " fill="#FDF4EB" transform="translate(194,100)"/>
<path d="M0 0 C3.71599191 -0.20086443 4.77208445 -0.1519437 8 2 C8.29296875 5.2578125 8.29296875 5.2578125 8.1875 9.125 C8.16042969 10.40632813 8.13335937 11.68765625 8.10546875 13.0078125 C8.07066406 13.99523437 8.03585938 14.98265625 8 16 C7.01 16 6.02 16 5 16 C4.67 16.66 4.34 17.32 4 18 C2.68 18 1.36 18 0 18 C0 16.68 0 15.36 0 14 C-0.66 14 -1.32 14 -2 14 C-2 10.04 -2 6.08 -2 2 C-1.34 2 -0.68 2 0 2 C0 1.34 0 0.68 0 0 Z " fill="#FDF5EC" transform="translate(162,98)"/>
<path d="M0 0 C2.79192205 -0.05380578 5.5828141 -0.09357669 8.375 -0.125 C9.1690625 -0.14175781 9.963125 -0.15851563 10.78125 -0.17578125 C12.85492015 -0.19335473 14.92883241 -0.10335168 17 0 C19 2 19 2 19.1953125 5.0390625 C19.17210937 6.22242187 19.14890625 7.40578125 19.125 8.625 C19.10695312 9.81351563 19.08890625 11.00203125 19.0703125 12.2265625 C19.04710937 13.14179687 19.02390625 14.05703125 19 15 C19.66 15 20.32 15 21 15 C21.33 16.32 21.66 17.64 22 19 C19.03 19 16.06 19 13 19 C13 18.34 13 17.68 13 17 C13.66 17 14.32 17 15 17 C15 12.38 15 7.76 15 3 C11.7 3 8.4 3 5 3 C5 7.62 5 12.24 5 17 C1.59143716 13.59143716 2.5320838 8.72756355 2.34375 4.08984375 C2.2303125 3.07019531 2.116875 2.05054687 2 1 C1.34 0.67 0.68 0.34 0 0 Z " fill="#F3B473" transform="translate(179,97)"/>
<path d="M0 0 C0 3.96 0 7.92 0 12 C-0.99 12 -1.98 12 -3 12 C-3 12.66 -3 13.32 -3 14 C-4.65 14 -6.3 14 -8 14 C-8 13.34 -8 12.68 -8 12 C-8.66 12 -9.32 12 -10 12 C-10 11.34 -10 10.68 -10 10 C-10.66 10 -11.32 10 -12 10 C-12 7.36 -12 4.72 -12 2 C-11.34 2 -10.68 2 -10 2 C-10 1.34 -10 0.68 -10 0 C-6.7169902 -1.6415049 -3.57454967 -0.51888624 0 0 Z " fill="#FDF4EB" transform="translate(306,100)"/>
<path d="M0 0 C1.12256131 2.24512262 1.13413762 3.51456649 1.125 6 C1.12757813 6.70125 1.13015625 7.4025 1.1328125 8.125 C1 10 1 10 0 12 C-0.66 12 -1.32 12 -2 12 C-2 12.66 -2 13.32 -2 14 C-3.65 14 -5.3 14 -7 14 C-7 13.34 -7 12.68 -7 12 C-7.66 12 -8.32 12 -9 12 C-10.59511297 8.80977406 -10.37542561 5.47091604 -10 2 C-7.76236292 -2.34364845 -4.19635999 -1.01023481 0 0 Z " fill="#FDF8F1" transform="translate(217,100)"/>
<path d="M0 0 C0 5.61 0 11.22 0 17 C1.32 17 2.64 17 4 17 C4 18.65 4 20.3 4 22 C2.54176788 22.0270043 1.08339325 22.04639787 -0.375 22.0625 C-1.18710938 22.07410156 -1.99921875 22.08570312 -2.8359375 22.09765625 C-5 22 -5 22 -7 21 C-7 19.68 -7 18.36 -7 17 C-6.01 17 -5.02 17 -4 17 C-4 13.04 -4 9.08 -4 5 C-4.99 5 -5.98 5 -7 5 C-7 3.68 -7 2.36 -7 1 C-5 0 -5 0 0 0 Z " fill="#F7CFA4" transform="translate(148,95)"/>
<path d="M0 0 C1.98 0 3.96 0 6 0 C6.33 3.3 6.66 6.6 7 10 C8.65 10 10.3 10 12 10 C12.33 6.7 12.66 3.4 13 0 C14.98 0 16.96 0 19 0 C18.01 0.495 18.01 0.495 17 1 C17.12375 1.9590625 17.12375 1.9590625 17.25 2.9375 C16.94150467 6.71656783 15.60994071 9.43033766 13.97265625 12.81640625 C13.05621375 14.87380127 12.47317091 16.80349085 12 19 C10.68 19 9.36 19 8 19 C8 18.34 8 17.68 8 17 C7.34 17 6.68 17 6 17 C5.67 14.03 5.34 11.06 5 8 C4.34 8 3.68 8 3 8 C3 6.35 3 4.7 3 3 C2.34 3 1.68 3 1 3 C0.67 2.01 0.34 1.02 0 0 Z " fill="#F3B370" transform="translate(224,97)"/>
<path d="M0 0 C0.66 0 1.32 0 2 0 C2 0.99 2 1.98 2 3 C3.65 3.33 5.3 3.66 7 4 C7 4.99 7 5.98 7 7 C6.01 7.495 6.01 7.495 5 8 C4.53101037 10.8159849 4.53101037 10.8159849 4.375 14.0625 C4.30023438 15.16722656 4.22546875 16.27195312 4.1484375 17.41015625 C4.09945313 18.26480469 4.05046875 19.11945313 4 20 C4.99 20 5.98 20 7 20 C7 21.65 7 23.3 7 25 C4.69 24.67 2.38 24.34 0 24 C-0.19533059 20.9378174 -0.38153284 17.87553679 -0.5625 14.8125 C-0.61857422 13.94818359 -0.67464844 13.08386719 -0.73242188 12.19335938 C-0.9761489 7.95250921 -1.15770796 4.14202181 0 0 Z " fill="#F9DBBB" transform="translate(270,92)"/>
<path d="M0 0 C0.99 0.33 1.98 0.66 3 1 C3 5.62 3 10.24 3 15 C2.01 15 1.02 15 0 15 C0 12.69 0 10.38 0 8 C-2.97 8 -5.94 8 -9 8 C-9 10.31 -9 12.62 -9 15 C-6.69 15 -4.38 15 -2 15 C-2 15.33 -2 15.66 -2 16 C-9.75 16.125 -9.75 16.125 -12 15 C-12 12.03 -12 9.06 -12 6 C-7.9472484 5.01751476 -4.16138263 4.91840426 0 5 C0 3.35 0 1.7 0 0 Z " fill="#F2AA60" transform="translate(258,99)"/>
<path d="M0 0 C0.66 0 1.32 0 2 0 C2 0.99 2 1.98 2 3 C2.66 3 3.32 3 4 3 C4 7.95 4 12.9 4 18 C3.34 18 2.68 18 2 18 C2 18.66 2 19.32 2 20 C1.34 20 0.68 20 0 20 C0 18.68 0 17.36 0 16 C-0.99 16 -1.98 16 -3 16 C-3 12.04 -3 8.08 -3 4 C-2.01 4 -1.02 4 0 4 C0 2.68 0 1.36 0 0 Z " fill="#FCF0E4" transform="translate(311,96)"/>
<path d="M0 0 C2.97 0 5.94 0 9 0 C9 0.66 9 1.32 9 2 C6.69 2 4.38 2 2 2 C2 13.22 2 24.44 2 36 C1.34 36 0.68 36 0 36 C0 24.12 0 12.24 0 0 Z " fill="#9CBECB" transform="translate(15,69)"/>
<path d="M0 0 C0.33 0.66 0.66 1.32 1 2 C1.66 2 2.32 2 3 2 C3 3.65 3 5.3 3 7 C3.66 7 4.32 7 5 7 C5 8.65 5 10.3 5 12 C5.99 12 6.98 12 8 12 C8 13.65 8 15.3 8 17 C5.69 17 3.38 17 1 17 C0.67 11.39 0.34 5.78 0 0 Z " fill="#F5BC81" transform="translate(279,76)"/>
<path d="M0 0 C0.33 0.66 0.66 1.32 1 2 C-5.435 2.495 -5.435 2.495 -12 3 C-12 8.28 -12 13.56 -12 19 C-11.01 19 -10.02 19 -9 19 C-9 18.34 -9 17.68 -9 17 C-8.34 17 -7.68 17 -7 17 C-7 18.32 -7 19.64 -7 21 C-9.97 21 -12.94 21 -16 21 C-16 19.68 -16 18.36 -16 17 C-15.01 17 -14.02 17 -13 17 C-13 13.04 -13 9.08 -13 5 C-13.99 5 -14.98 5 -16 5 C-15.67 3.68 -15.34 2.36 -15 1 C-9.92928099 0.28832014 -5.11791642 -0.10662326 0 0 Z " fill="#F6C694" transform="translate(169,95)"/>
<path d="M0 0 C0.66 0 1.32 0 2 0 C2 2.97 2 5.94 2 9 C3.32 9 4.64 9 6 9 C6 9.66 6 10.32 6 11 C4.35 11 2.7 11 1 11 C1.33 14.3 1.66 17.6 2 21 C-0.42130331 18.57869669 -0.52840504 17.19888623 -1.125 13.875 C-1.29257813 12.96492188 -1.46015625 12.05484375 -1.6328125 11.1171875 C-1.81457031 10.06917969 -1.81457031 10.06917969 -2 9 C-2.66 9 -3.32 9 -4 9 C-4.33 7.35 -4.66 5.7 -5 4 C-3.68 4.33 -2.36 4.66 -1 5 C-0.67 3.35 -0.34 1.7 0 0 Z " fill="#BDD3DD" transform="translate(96,62)"/>
<path d="M0 0 C0.99 0 1.98 0 3 0 C3.66 0.66 4.32 1.32 5 2 C5.66 2 6.32 2 7 2 C7 6.62 7 11.24 7 16 C7.66 16 8.32 16 9 16 C9 16.66 9 17.32 9 18 C6.03 18 3.06 18 0 18 C0 17.34 0 16.68 0 16 C0.66 16 1.32 16 2 16 C2 11.05 2 6.1 2 1 C1.34 0.67 0.68 0.34 0 0 Z " fill="#F3B676" transform="translate(313,98)"/>
<path d="M0 0 C1.65 0 3.3 0 5 0 C5.06058594 1.04800781 5.12117188 2.09601563 5.18359375 3.17578125 C5.26801738 4.55470048 5.35266447 5.93360605 5.4375 7.3125 C5.47681641 8.00279297 5.51613281 8.69308594 5.55664062 9.40429688 C5.74927415 12.47161535 6.02322717 15.06968152 7 18 C4.69 18 2.38 18 0 18 C0.66 17.67 1.32 17.34 2 17 C2 11.72 2 6.44 2 1 C1.34 0.67 0.68 0.34 0 0 Z " fill="#F0A04B" transform="translate(280,97)"/>
<path d="M0 0 C1.65 0 3.3 0 5 0 C5 5.61 5 11.22 5 17 C5.66 17.33 6.32 17.66 7 18 C4.69 18 2.38 18 0 18 C0.66 17.67 1.32 17.34 2 17 C2 11.72 2 6.44 2 1 C1.34 0.67 0.68 0.34 0 0 Z " fill="#F1A250" transform="translate(143,97)"/>
<path d="M0 0 C5.94 0 11.88 0 18 0 C18.33 0.66 18.66 1.32 19 2 C14.05 2.33 9.1 2.66 4 3 C4 8.28 4 13.56 4 19 C3.34 19 2.68 19 2 19 C2.33 14.38 2.66 9.76 3 5 C2.34 5 1.68 5 1 5 C0.67 3.35 0.34 1.7 0 0 Z " fill="#F8D4AF" transform="translate(177,95)"/>
<path d="M0 0 C0.66 0 1.32 0 2 0 C2 1.65 2 3.3 2 5 C2.99 5.33 3.98 5.66 5 6 C4.01 6 3.02 6 2 6 C2.11339204 8.64680904 2.24012873 11.29177518 2.375 13.9375 C2.42140625 15.06961914 2.42140625 15.06961914 2.46875 16.22460938 C2.5726315 18.15507395 2.77895614 20.07942081 3 22 C3.66 22.33 4.32 22.66 5 23 C3.35 22.67 1.7 22.34 0 22 C-0.19555932 19.27119539 -0.38170447 16.54228931 -0.5625 13.8125 C-0.61857422 13.04357422 -0.67464844 12.27464844 -0.73242188 11.48242188 C-0.99141557 7.45938647 -1.06573607 3.93927628 0 0 Z " fill="#EE9537" transform="translate(270,92)"/>
<path d="M0 0 C2.31 0.33 4.62 0.66 7 1 C7 1.66 7 2.32 7 3 C8.65 3.33 10.3 3.66 12 4 C12 4.66 12 5.32 12 6 C12.66 6 13.32 6 14 6 C14 6.66 14 7.32 14 8 C14.99 8 15.98 8 17 8 C17 8.66 17 9.32 17 10 C17.66 10 18.32 10 19 10 C19 10.99 19 11.98 19 13 C18.401875 12.690625 17.80375 12.38125 17.1875 12.0625 C14.91043228 10.89790296 14.91043228 10.89790296 12 10 C12 9.34 12 8.68 12 8 C11.34 8 10.68 8 10 8 C10 7.34 10 6.68 10 6 C9.21625 5.690625 8.4325 5.38125 7.625 5.0625 C5 4 5 4 3 3 C3 2.34 3 1.68 3 1 C2.01 0.67 1.02 0.34 0 0 Z " fill="#F4B879" transform="translate(246,44)"/>
<path d="M0 0 C0.66 0 1.32 0 2 0 C3.86143476 3.72286952 3.24770823 8.38989652 2.625 12.4375 C2 14 2 14 0 15 C-1.70702735 15.06996014 -3.41668003 15.08440154 -5.125 15.0625 C-6.03507812 15.05347656 -6.94515625 15.04445313 -7.8828125 15.03515625 C-8.58148438 15.02355469 -9.28015625 15.01195313 -10 15 C-10 14.67 -10 14.34 -10 14 C-7.69 14 -5.38 14 -3 14 C-3 13.34 -3 12.68 -3 12 C-2.01 12 -1.02 12 0 12 C0 8.04 0 4.08 0 0 Z " fill="#F09E48" transform="translate(306,100)"/>
<path d="M0 0 C0.66 0 1.32 0 2 0 C2 0.66 2 1.32 2 2 C1.34 2 0.68 2 0 2 C0 9.26 0 16.52 0 24 C-0.66 24 -1.32 24 -2 24 C-2.16843931 21.75013201 -2.33468654 19.50009983 -2.5 17.25 C-2.5928125 15.99703125 -2.685625 14.7440625 -2.78125 13.453125 C-3.13495312 7.86966856 -2.67435607 4.90298613 0 0 Z " fill="#F9D8B5" transform="translate(270,90)"/>
<path d="M0 0 C4.95 0 9.9 0 15 0 C15 0.33 15 0.66 15 1 C12.36 1 9.72 1 7 1 C7 1.66 7 2.32 7 3 C6.34 3 5.68 3 5 3 C5 7.62 5 12.24 5 17 C1.59143716 13.59143716 2.5320838 8.72756355 2.34375 4.08984375 C2.2303125 3.07019531 2.116875 2.05054687 2 1 C1.34 0.67 0.68 0.34 0 0 Z " fill="#EE9436" transform="translate(179,97)"/>
<path d="M0 0 C0 1.32 0 2.64 0 4 C-4.455 4.495 -4.455 4.495 -9 5 C-8.67 4.01 -8.34 3.02 -8 2 C-9.32 1.67 -10.64 1.34 -12 1 C-7.67265609 -1.22923777 -4.71599818 -0.92470553 0 0 Z " fill="#FCEEE0" transform="translate(258,100)"/>
<path d="M0 0 C0.33 0 0.66 0 1 0 C1 4.62 1 9.24 1 14 C1.99 14 2.98 14 4 14 C4 13.34 4 12.68 4 12 C5.32 12 6.64 12 8 12 C8 13.32 8 14.64 8 16 C4.37 16 0.74 16 -3 16 C-3 14.68 -3 13.36 -3 12 C-2.01 12 -1.02 12 0 12 C0 8.04 0 4.08 0 0 Z " fill="#F9DAB9" transform="translate(328,100)"/>
<path d="M0 0 C2.31 0 4.62 0 7 0 C7 1.65 7 3.3 7 5 C4.69 5.33 2.38 5.66 0 6 C-1.125 2.25 -1.125 2.25 0 0 Z " fill="#FEF9F4" transform="translate(251,107)"/>
<path d="M0 0 C0.33 0 0.66 0 1 0 C1 3.3 1 6.6 1 10 C2.32 10 3.64 10 5 10 C5.33 11.32 5.66 12.64 6 14 C3.03 14 0.06 14 -3 14 C-3 13.34 -3 12.68 -3 12 C-2.34 12 -1.68 12 -1 12 C-0.67 8.04 -0.34 4.08 0 0 Z " fill="#F2AF68" transform="translate(195,102)"/>
<path d="M0 0 C1.98 0 3.96 0 6 0 C5.01 0.495 5.01 0.495 4 1 C4.0825 1.680625 4.165 2.36125 4.25 3.0625 C3.90053135 7.16875665 2.18150968 9.52321895 0 13 C-0.33 13 -0.66 13 -1 13 C-0.67 8.71 -0.34 4.42 0 0 Z " fill="#F09F4B" transform="translate(237,97)"/>
<path d="M0 0 C0.80566406 0.07863281 1.61132812 0.15726562 2.44140625 0.23828125 C3.42947266 0.46064453 3.42947266 0.46064453 4.4375 0.6875 C4.7675 1.3475 5.0975 2.0075 5.4375 2.6875 C2.7975 2.6875 0.1575 2.6875 -2.5625 2.6875 C-2.5625 3.3475 -2.5625 4.0075 -2.5625 4.6875 C-3.2225 4.6875 -3.8825 4.6875 -4.5625 4.6875 C-5.5525 8.1525 -5.5525 8.1525 -6.5625 11.6875 C-6.8925 11.6875 -7.2225 11.6875 -7.5625 11.6875 C-7.71634615 3.6875 -7.71634615 3.6875 -6.5625 0.6875 C-4.07849398 -0.55450301 -2.74042364 -0.29471651 0 0 Z " fill="#F4BB7E" transform="translate(298.5625,97.3125)"/>
<path d="M0 0 C1.32 0 2.64 0 4 0 C4 0.66 4 1.32 4 2 C5.32 2 6.64 2 8 2 C8 1.34 8 0.68 8 0 C8.99 0 9.98 0 11 0 C11 1.32 11 2.64 11 4 C8.01405576 5.49297212 5.29146376 5.11755228 2 5 C1.34 4.67 0.68 4.34 0 4 C0 2.68 0 1.36 0 0 Z " fill="#F8D5B1" transform="translate(278,112)"/>
<path d="M0 0 C0.99 0 1.98 0 3 0 C3 3.96 3 7.92 3 12 C2.01 12 1.02 12 0 12 C0 8.04 0 4.08 0 0 Z " fill="#F1A75A" transform="translate(203,100)"/>
<path d="M0 0 C0.33 0 0.66 0 1 0 C1 3.96 1 7.92 1 12 C1.66 12.33 2.32 12.66 3 13 C0.69 13 -1.62 13 -4 13 C-3.34 12.67 -2.68 12.34 -2 12 C-1.56947737 9.44648887 -1.56947737 9.44648887 -1.4375 6.5 C-1.09628611 1.09628611 -1.09628611 1.09628611 0 0 Z " fill="#EE9537" transform="translate(331,102)"/>
<path d="M0 0 C0.33 0 0.66 0 1 0 C1.33 4.62 1.66 9.24 2 14 C3.32 14 4.64 14 6 14 C6 14.66 6 15.32 6 16 C3.36 16 0.72 16 -2 16 C-2 15.34 -2 14.68 -2 14 C-1.34 14 -0.68 14 0 14 C0 9.38 0 4.76 0 0 Z " fill="#F2AE66" transform="translate(181,100)"/>
<path d="M0 0 C0 0.66 0 1.32 0 2 C0.66 2.33 1.32 2.66 2 3 C0.35 3.66 -1.3 4.32 -3 5 C-3 5.66 -3 6.32 -3 7 C-3.66 7 -4.32 7 -5 7 C-5 7.66 -5 8.32 -5 9 C-5.66 9 -6.32 9 -7 9 C-7.33 8.01 -7.66 7.02 -8 6 C-7.01 5.67 -6.02 5.34 -5 5 C-5 4.34 -5 3.68 -5 3 C-2.46153846 0 -2.46153846 0 0 0 Z " fill="#F5C28C" transform="translate(177,45)"/>
<path d="M0 0 C0.66 0 1.32 0 2 0 C2 2.64 2 5.28 2 8 C0.35 7.67 -1.3 7.34 -3 7 C-3 5.68 -3 4.36 -3 3 C-2.01 3 -1.02 3 0 3 C0 2.01 0 1.02 0 0 Z " fill="#F1A75A" transform="translate(146,85)"/>
<path d="M0 0 C0.99 0.33 1.98 0.66 3 1 C2.34 1 1.68 1 1 1 C1 3.31 1 5.62 1 8 C3.31 8 5.62 8 8 8 C8 8.33 8 8.66 8 9 C0.25 9.125 0.25 9.125 -2 8 C-2 5.69 -2 3.38 -2 1 C-1.34 0.67 -0.68 0.34 0 0 Z " fill="#EF9538" transform="translate(248,106)"/>
<path d="M0 0 C2.64 0 5.28 0 8 0 C8 3.66666667 8 7.33333333 8 11 C5.87491756 7.81237635 5.4979837 5.73487777 5 2 C3.35 1.67 1.7 1.34 0 1 C0 0.67 0 0.34 0 0 Z " fill="#F9D8B5" transform="translate(224,96)"/>
<path d="M0 0 C2.97 0 5.94 0 9 0 C9 0.66 9 1.32 9 2 C6.69 2 4.38 2 2 2 C2 3.65 2 5.3 2 7 C1.34 7 0.68 7 0 7 C0 4.69 0 2.38 0 0 Z " fill="#6E9FB4" transform="translate(127,95)"/>
<path d="M0 0 C2.31 0.33 4.62 0.66 7 1 C7 1.66 7 2.32 7 3 C6.34 3 5.68 3 5 3 C5 7.62 5 12.24 5 17 C4.67 17 4.34 17 4 17 C3.67 11.72 3.34 6.44 3 1 C2.01 0.67 1.02 0.34 0 0 Z " fill="#ED8C26" transform="translate(313,97)"/>
<path d="M0 0 C0.99 0.33 1.98 0.66 3 1 C3 5.62 3 10.24 3 15 C2.01 15 1.02 15 0 15 C0 13.68 0 12.36 0 11 C0.66 11 1.32 11 2 11 C2 8.03 2 5.06 2 2 C1.34 2 0.68 2 0 2 C0 1.34 0 0.68 0 0 Z " fill="#EE9131" transform="translate(258,99)"/>
<path d="M0 0 C1.32 0 2.64 0 4 0 C4.84454356 3.37817425 5.10844919 5.67465243 4 9 C2.68 8.67 1.36 8.34 0 8 C0.99 8 1.98 8 3 8 C3 6.68 3 5.36 3 4 C2.01 4 1.02 4 0 4 C0 2.68 0 1.36 0 0 Z " fill="#F4BC81" transform="translate(232,107)"/>
<path d="M0 0 C4.54805635 -0.17835515 7.8794254 0.00214565 12 2 C12 2.33 12 2.66 12 3 C8.7 3 5.4 3 2 3 C2 2.34 2 1.68 2 1 C1.34 0.67 0.68 0.34 0 0 Z " fill="#F4B574" transform="translate(220,35)"/>
<path d="M0 0 C1.65 0 3.3 0 5 0 C4.67 1.32 4.34 2.64 4 4 C2.68 4.33 1.36 4.66 0 5 C0 3.35 0 1.7 0 0 Z " fill="#5B92A9" transform="translate(339,112)"/>
<path d="M0 0 C1.32 0 2.64 0 4 0 C4 1.65 4 3.3 4 5 C1.03 5 -1.94 5 -5 5 C-5 4.67 -5 4.34 -5 4 C-3.02 3.67 -1.04 3.34 1 3 C0.67 2.01 0.34 1.02 0 0 Z " fill="#FAE1C6" transform="translate(148,112)"/>
<path d="M0 0 C1.98 0 3.96 0 6 0 C5.67 1.98 5.34 3.96 5 6 C4.34 6 3.68 6 3 6 C3 5.01 3 4.02 3 3 C2.34 3 1.68 3 1 3 C0.67 2.01 0.34 1.02 0 0 Z " fill="#EF9537" transform="translate(224,97)"/>
<path d="M0 0 C1.32 0 2.64 0 4 0 C4 1.32 4 2.64 4 4 C1.03 4 -1.94 4 -5 4 C-5 3.67 -5 3.34 -5 3 C-3.35 2.67 -1.7 2.34 0 2 C0 1.34 0 0.68 0 0 Z " fill="#F7CB9C" transform="translate(332,112)"/>
<path d="M0 0 C2.475 0.495 2.475 0.495 5 1 C5 1.99 5 2.98 5 4 C3.35 4.33 1.7 4.66 0 5 C0 3.35 0 1.7 0 0 Z " fill="#F6CA9C" transform="translate(272,95)"/>
<path d="M0 0 C0 0.33 0 0.66 0 1 C-1.65 1 -3.3 1 -5 1 C-5 1.66 -5 2.32 -5 3 C-7.31 3 -9.62 3 -12 3 C-12 2.34 -12 1.68 -12 1 C-7.9472484 0.01751476 -4.16138263 -0.08159574 0 0 Z " fill="#F3B16C" transform="translate(258,104)"/>
<path d="M0 0 C0.33 1.32 0.66 2.64 1 4 C1.99 4 2.98 4 4 4 C4 5.32 4 6.64 4 8 C3.01 8 2.02 8 1 8 C0.67 5.36 0.34 2.72 0 0 Z " fill="#EF9537" transform="translate(231,107)"/>
<path d="M0 0 C0.66 0 1.32 0 2 0 C2 0.66 2 1.32 2 2 C1.34 2 0.68 2 0 2 C0 4.31 0 6.62 0 9 C-0.99 8.67 -1.98 8.34 -3 8 C-1.125 1.125 -1.125 1.125 0 0 Z " fill="#F4BC81" transform="translate(270,90)"/>
<path d="M0 0 C0.75 1.6875 0.75 1.6875 1 4 C-0.9375 6.75 -0.9375 6.75 -3 9 C-2.67 6.69 -2.34 4.38 -2 2 C-1.34 2 -0.68 2 0 2 C0 1.34 0 0.68 0 0 Z " fill="#F3B574" transform="translate(155,67)"/>
</svg>
